<?xml version="1.0" encoding="UTF-8"?>
<svg xmlns="http://www.w3.org/2000/svg" version="1.1" viewBox="0 0 680.25 648">
  <!-- Generator: Adobe Illustrator 29.4.0, SVG Export Plug-In . SVG Version: 2.1.0 Build 152)  -->
  <defs>
    <style>
      .st0 {
        fill: #c7d100;
      }

      .st1 {
        isolation: isolate;
      }

      .st2 {
        fill: #fff;
        stroke: #fff;
        stroke-linecap: round;
        stroke-linejoin: round;
        stroke-width: 22.14px;
      }

      .st3 {
        fill: #a5d6e5;
        mix-blend-mode: multiply;
      }
    </style>
  </defs>
  <g class="st1">
    <g id="Capa_1">
      <g>
        <path class="st2" d="M490.07,158.34l-.2-.05c-3.85-11.29-14.36-19.4-26.76-19.4-7.28,0-13.9,2.82-18.92,7.42l-.09-.02-109.69,111.77-106.54-108.56c-1.17-1.44-2.47-2.77-3.88-3.95l-.07-.07h-.02c-4.94-4.12-11.23-6.59-18.11-6.59-14.02,0-25.66,10.28-28.11,23.83l-82.91,339.51h164.83l74.84-76.26,74.84,76.26h164.76l-83.98-343.89Z"/>
        <g>
          <path class="st0" d="M227.87,149.5c-1.17-1.44-2.47-2.77-3.88-3.95l-.07-.07h-.02c-4.94-4.12-11.23-6.59-18.11-6.59-14.02,0-25.66,10.28-28.11,23.83l-82.91,339.51h164.83l74.84-76.26,74.84,76.26h164.76L227.87,149.5Z"/>
          <path class="st3" d="M490.07,158.34l-.2-.05c-3.85-11.29-14.36-19.4-26.76-19.4-7.28,0-13.9,2.82-18.92,7.42l-.09-.02L94.78,502.24h164.83l74.84-76.26,74.84,76.26h164.76l-83.98-343.89Z"/>
        </g>
      </g>
    </g>
  </g>
</svg>