<?xml version="1.0" encoding="utf-8"?>
<!-- Generator: Adobe Illustrator 16.0.0, SVG Export Plug-In . SVG Version: 6.00 Build 0)  -->
<!DOCTYPE svg PUBLIC "-//W3C//DTD SVG 1.1//EN" "http://www.w3.org/Graphics/SVG/1.1/DTD/svg11.dtd">
<svg version="1.1" id="Capa_1" xmlns="http://www.w3.org/2000/svg" xmlns:xlink="http://www.w3.org/1999/xlink" x="0px" y="0px"
	 width="194.661px" height="50px" viewBox="19.468 5 194.661 50" enable-background="new 19.468 5 194.661 50" xml:space="preserve"
	>
<g>
	<g>
		<path fill="#777372" d="M111.08,23.604c0.986,0,1.83,0.142,2.532,0.425c0.703,0.283,1.277,0.685,1.725,1.203
			c0.447,0.52,0.771,1.136,0.972,1.847c0.201,0.711,0.3,1.487,0.3,2.326v9.687h-4.076v-9.687c0-0.583-0.096-1.085-0.288-1.505
			c-0.191-0.419-0.579-0.628-1.164-0.628c-0.31,0-0.556,0.069-0.738,0.205c-0.182,0.137-0.315,0.315-0.396,0.533
			c-0.083,0.22-0.133,0.476-0.151,0.767c-0.018,0.293-0.028,0.593-0.028,0.904v0.164c0,0.053,0.006,0.113,0.015,0.177
			c0.009,0.065,0.013,0.124,0.013,0.177v8.894h-4.104v-9.248c0-0.347-0.009-0.676-0.028-0.987c-0.018-0.31-0.082-0.584-0.19-0.821
			c-0.11-0.236-0.283-0.423-0.52-0.561c-0.237-0.137-0.574-0.205-1.012-0.205c-0.019,0-0.128,0.022-0.33,0.069
			c-0.201,0.044-0.355,0.14-0.465,0.286v11.465H99.07V24.917c0.51-0.291,1.026-0.52,1.545-0.683c0.52-0.165,0.994-0.292,1.423-0.382
			c0.429-0.091,0.803-0.15,1.123-0.178c0.319-0.027,0.542-0.042,0.669-0.042h0.111c0.766,0,1.449,0.095,2.052,0.288
			c0.602,0.191,1.139,0.469,1.614,0.835c0.419-0.365,0.913-0.647,1.478-0.849C109.649,23.705,110.315,23.604,111.08,23.604z"/>
		<path fill="#777372" d="M131.22,32.607h-8.019c0,0.383,0.01,0.798,0.028,1.245c0.018,0.447,0.096,0.861,0.232,1.244
			c0.136,0.383,0.352,0.703,0.643,0.958c0.292,0.257,0.712,0.383,1.259,0.383c0.383,0,0.693-0.054,0.929-0.163
			c0.237-0.11,0.431-0.242,0.575-0.397c0.146-0.156,0.256-0.32,0.329-0.494c0.072-0.172,0.136-0.331,0.191-0.478h3.776
			c-0.092,0.676-0.266,1.286-0.521,1.833c-0.256,0.548-0.611,1.014-1.065,1.396c-0.457,0.383-1.032,0.676-1.726,0.876
			s-1.522,0.3-2.489,0.3c-1.095,0-2.03-0.191-2.806-0.575c-0.775-0.383-1.4-0.884-1.874-1.504s-0.82-1.332-1.04-2.136
			c-0.218-0.802-0.328-1.632-0.328-2.489v-3.338c0-0.839,0.123-1.605,0.369-2.299c0.246-0.694,0.616-1.291,1.108-1.793
			c0.491-0.501,1.117-0.888,1.874-1.163c0.757-0.273,1.656-0.411,2.695-0.411c1.149,0,2.102,0.178,2.86,0.535
			c0.756,0.355,1.358,0.825,1.805,1.408c0.448,0.584,0.757,1.269,0.931,2.052c0.173,0.784,0.261,1.597,0.261,2.436L131.22,32.607
			L131.22,32.607z M127.554,29.707c0-0.347-0.016-0.708-0.042-1.082c-0.026-0.374-0.109-0.72-0.247-1.039
			c-0.136-0.319-0.351-0.583-0.642-0.793c-0.292-0.209-0.712-0.315-1.259-0.315c-0.767,0-1.317,0.233-1.655,0.697
			c-0.338,0.465-0.508,1.164-0.508,2.094v0.766h4.354L127.554,29.707L127.554,29.707z"/>
		<path fill="#777372" d="M144.293,24.042l-1.888,3.721h-2.216c-0.274,0-0.549,0.024-0.821,0.068
			c-0.274,0.047-0.511,0.138-0.712,0.275c-0.199,0.136-0.364,0.328-0.492,0.573c-0.126,0.247-0.19,0.58-0.19,1v9.412h-4.132V29.68
			c0-0.767,0.136-1.487,0.41-2.163c0.273-0.674,0.693-1.268,1.258-1.779c0.566-0.51,1.276-0.916,2.135-1.217
			c0.858-0.302,1.869-0.461,3.038-0.48h0.22H144.293z"/>
		<path fill="#777372" d="M151.217,35.863c0.748,0,1.273-0.246,1.574-0.738c0.3-0.493,0.451-1.085,0.451-1.778h4.133
			c0,0.855-0.11,1.654-0.329,2.394c-0.22,0.739-0.575,1.376-1.067,1.914c-0.494,0.539-1.131,0.964-1.916,1.273
			c-0.783,0.309-1.733,0.465-2.846,0.465c-1.04,0-1.942-0.15-2.71-0.452c-0.766-0.3-1.399-0.711-1.9-1.23
			c-0.503-0.521-0.88-1.14-1.136-1.86s-0.382-1.501-0.382-2.341v-4.24c0-0.839,0.126-1.605,0.382-2.299
			c0.257-0.694,0.634-1.291,1.136-1.793c0.502-0.501,1.135-0.888,1.9-1.163c0.768-0.273,1.67-0.411,2.71-0.411
			c1.059,0,1.971,0.142,2.736,0.425s1.404,0.679,1.916,1.189c0.509,0.512,0.889,1.128,1.134,1.848
			c0.248,0.721,0.371,1.51,0.371,2.366h-4.132c0-0.692-0.152-1.286-0.452-1.778c-0.3-0.492-0.825-0.739-1.573-0.739
			s-1.269,0.229-1.562,0.684c-0.291,0.457-0.436,1.013-0.436,1.67v4.241c0,0.657,0.149,1.213,0.451,1.669
			C149.972,35.637,150.488,35.863,151.217,35.863z"/>
		<path fill="#777372" d="M171.602,32.607h-8.018c0,0.383,0.009,0.798,0.027,1.245c0.018,0.447,0.096,0.861,0.232,1.244
			c0.136,0.383,0.35,0.703,0.643,0.958c0.293,0.257,0.712,0.383,1.26,0.383c0.383,0,0.693-0.054,0.93-0.163
			c0.237-0.11,0.429-0.242,0.575-0.397c0.146-0.156,0.255-0.32,0.328-0.494c0.073-0.172,0.138-0.331,0.191-0.478h3.775
			c-0.091,0.676-0.263,1.286-0.52,1.833c-0.256,0.548-0.611,1.014-1.067,1.396c-0.455,0.383-1.03,0.676-1.723,0.876
			c-0.694,0.2-1.523,0.3-2.49,0.3c-1.095,0-2.03-0.191-2.804-0.575c-0.776-0.383-1.4-0.884-1.874-1.504
			c-0.476-0.62-0.822-1.332-1.041-2.136c-0.219-0.802-0.33-1.632-0.33-2.489v-3.338c0-0.839,0.124-1.605,0.371-2.299
			c0.246-0.694,0.615-1.291,1.108-1.793c0.492-0.501,1.117-0.888,1.874-1.163c0.756-0.273,1.655-0.411,2.695-0.411
			c1.149,0,2.101,0.178,2.859,0.535c0.757,0.355,1.358,0.825,1.806,1.408c0.447,0.584,0.757,1.269,0.93,2.052
			c0.174,0.784,0.261,1.597,0.261,2.436V32.607L171.602,32.607z M167.936,29.707c0-0.347-0.016-0.708-0.041-1.082
			c-0.027-0.374-0.11-0.72-0.246-1.039c-0.139-0.319-0.353-0.583-0.644-0.793c-0.292-0.209-0.712-0.315-1.259-0.315
			c-0.766,0-1.317,0.233-1.655,0.697c-0.338,0.465-0.506,1.164-0.506,2.094v0.766h4.352L167.936,29.707L167.936,29.707z"/>
		<path fill="#777372" d="M186.46,18.269v15.104c0,0.858-0.133,1.655-0.397,2.395s-0.655,1.378-1.176,1.916
			c-0.52,0.538-1.164,0.957-1.929,1.259c-0.767,0.301-1.651,0.452-2.654,0.452c-1.04,0-1.943-0.146-2.709-0.438
			c-0.766-0.292-1.4-0.698-1.903-1.219c-0.5-0.52-0.879-1.14-1.134-1.859c-0.256-0.721-0.385-1.501-0.385-2.341v-4.46
			c0-1.697,0.563-3.022,1.685-3.981c1.123-0.958,2.842-1.455,5.158-1.492c0.219,0,0.433,0,0.643,0c0.209,0,0.425,0.019,0.643,0.055
			v-5.391H186.46z M180.304,35.891c0.767,0,1.291-0.214,1.572-0.644c0.283-0.428,0.426-1.055,0.426-1.874v-6.266
			c-0.584-0.146-1.122-0.22-1.615-0.22c-0.677,0-1.24,0.169-1.696,0.506c-0.457,0.337-0.685,0.953-0.685,1.847v4.296
			c0,0.766,0.146,1.349,0.438,1.751C179.034,35.69,179.554,35.891,180.304,35.891z"/>
		<path fill="#777372" d="M200.858,32.607h-8.019c0,0.383,0.009,0.798,0.028,1.245c0.018,0.447,0.096,0.861,0.231,1.244
			c0.138,0.383,0.351,0.703,0.643,0.958c0.292,0.257,0.713,0.383,1.26,0.383c0.383,0,0.693-0.054,0.931-0.163
			c0.236-0.11,0.428-0.242,0.575-0.397c0.145-0.156,0.254-0.32,0.328-0.494c0.072-0.172,0.137-0.331,0.192-0.478h3.774
			c-0.091,0.676-0.264,1.286-0.521,1.833c-0.256,0.548-0.61,1.014-1.066,1.396s-1.03,0.676-1.724,0.876s-1.523,0.3-2.49,0.3
			c-1.094,0-2.03-0.191-2.805-0.575c-0.775-0.383-1.399-0.884-1.874-1.504c-0.474-0.62-0.819-1.332-1.039-2.136
			c-0.22-0.802-0.33-1.632-0.33-2.489v-3.338c0-0.839,0.124-1.605,0.37-2.299c0.246-0.694,0.615-1.291,1.108-1.793
			c0.492-0.501,1.118-0.888,1.874-1.163c0.756-0.273,1.654-0.411,2.695-0.411c1.149,0,2.102,0.178,2.859,0.535
			c0.757,0.355,1.359,0.825,1.807,1.408c0.446,0.583,0.756,1.269,0.93,2.052c0.173,0.784,0.261,1.597,0.261,2.436V32.607
			L200.858,32.607z M197.191,29.707c0-0.347-0.016-0.708-0.041-1.082c-0.028-0.374-0.11-0.72-0.246-1.039
			c-0.139-0.319-0.353-0.583-0.645-0.793c-0.291-0.21-0.711-0.315-1.258-0.315c-0.767,0-1.318,0.233-1.655,0.697
			c-0.338,0.465-0.507,1.164-0.507,2.094v0.766h4.353L197.191,29.707L197.191,29.707z"/>
		<path fill="#777372" d="M207.014,27.682c0,0.42,0.178,0.784,0.534,1.094c0.355,0.31,0.794,0.611,1.313,0.904
			c0.52,0.292,1.091,0.597,1.711,0.916c0.619,0.319,1.19,0.693,1.71,1.123c0.521,0.43,0.958,0.93,1.314,1.505
			c0.355,0.573,0.533,1.264,0.533,2.066c0,0.674-0.146,1.268-0.438,1.777c-0.294,0.513-0.688,0.936-1.19,1.273
			c-0.503,0.336-1.086,0.593-1.751,0.766c-0.667,0.174-1.374,0.261-2.122,0.261c-0.747,0-1.449-0.087-2.105-0.261
			c-0.658-0.173-1.232-0.435-1.725-0.781c-0.492-0.345-0.884-0.779-1.175-1.299c-0.293-0.52-0.439-1.136-0.439-1.849h3.804
			c0,0.385,0.146,0.726,0.438,1.026c0.292,0.302,0.693,0.451,1.203,0.451c0.4,0,0.771-0.109,1.109-0.327
			c0.336-0.221,0.524-0.539,0.561-0.959c0-0.473-0.174-0.889-0.521-1.244s-0.783-0.684-1.313-0.985
			c-0.528-0.301-1.099-0.606-1.711-0.917c-0.611-0.311-1.182-0.672-1.711-1.081c-0.528-0.41-0.966-0.89-1.313-1.437
			c-0.347-0.548-0.519-1.222-0.519-2.026c0-0.675,0.14-1.268,0.423-1.778c0.283-0.51,0.671-0.935,1.163-1.271
			c0.492-0.337,1.066-0.593,1.725-0.767c0.656-0.173,1.358-0.26,2.105-0.26c0.878,0,1.647,0.114,2.312,0.343
			c0.667,0.228,1.218,0.547,1.656,0.957c0.438,0.41,0.771,0.888,0.999,1.437c0.228,0.547,0.341,1.131,0.341,1.751h-3.61
			c0-0.183-0.028-0.379-0.084-0.588c-0.055-0.209-0.145-0.406-0.273-0.588c-0.128-0.182-0.3-0.328-0.52-0.438
			c-0.219-0.109-0.493-0.165-0.82-0.165c-0.511,0-0.908,0.133-1.191,0.398C207.155,26.975,207.014,27.298,207.014,27.682z"/>
	</g>
	<g>
		<path fill="#BED630" d="M37.965,6.442c-0.161-0.195-0.341-0.375-0.537-0.537l-0.009-0.01l-0.001,0.001
			C36.734,5.336,35.861,5,34.908,5c-1.94,0-3.552,1.397-3.893,3.239L19.535,54.383h22.821l10.363-10.364l10.365,10.364h22.82
			L37.965,6.442z"/>
		<path fill="#91D5E2" d="M74.275,7.645l-0.026-0.006C73.714,6.103,72.26,5,70.544,5c-1.009,0-1.926,0.384-2.622,1.009l-0.013-0.002
			L19.535,54.383h22.821l10.363-10.364l10.365,10.364h22.82L74.275,7.645z"/>
		<polygon fill="#77BF43" points="19.468,54.698 41.968,54.698 52.719,44.177 63.085,54.698 86.134,54.698 52.801,21.115 		"/>
	</g>
	<g>
		<path fill="#EE5B99" d="M104.152,47.223c-0.243-0.259-0.572-0.457-0.981-0.591c-0.392-0.127-0.889-0.191-1.478-0.191
			c-0.601,0-1.102,0.073-1.489,0.218c-0.396,0.148-0.715,0.359-0.948,0.63c-0.23,0.269-0.393,0.59-0.483,0.955
			c-0.069,0.278-0.118,0.582-0.143,0.905h-0.03v2.285c0,0.49,0.027,0.945,0.082,1.355c0.058,0.438,0.196,0.825,0.412,1.152
			c0.222,0.337,0.545,0.602,0.959,0.786c0.409,0.185,0.945,0.272,1.64,0.272c0.675,0,1.205-0.068,1.617-0.207
			c0.427-0.144,0.754-0.356,0.976-0.632c0.217-0.271,0.359-0.602,0.423-0.982c0.06-0.351,0.09-0.749,0.09-1.186v-0.239h-1.704v0.239
			c0,0.238-0.013,0.459-0.041,0.659c-0.024,0.173-0.081,0.324-0.168,0.451c-0.083,0.12-0.213,0.217-0.386,0.29
			c-0.184,0.079-0.455,0.118-0.806,0.118c-0.381,0-0.668-0.052-0.857-0.157c-0.18-0.1-0.305-0.228-0.379-0.393
			c-0.082-0.183-0.128-0.397-0.138-0.643c-0.009-0.276-0.014-0.571-0.014-0.886v-1.887c0-0.246,0.016-0.479,0.047-0.693
			c0.028-0.19,0.089-0.354,0.179-0.492c0.087-0.131,0.212-0.232,0.381-0.311c0.18-0.081,0.441-0.121,0.781-0.121
			c0.342,0,0.611,0.039,0.801,0.118c0.177,0.073,0.309,0.17,0.391,0.29c0.088,0.125,0.144,0.28,0.168,0.457
			c0.029,0.205,0.041,0.425,0.041,0.652v0.239h1.704v-0.239c0-0.47-0.046-0.892-0.137-1.254
			C104.567,47.808,104.394,47.481,104.152,47.223z"/>
		<path fill="#EE5B99" d="M106.325,43.566c-0.185,0.185-0.278,0.413-0.278,0.68c0,0.258,0.095,0.481,0.278,0.666
			c0.186,0.187,0.41,0.279,0.668,0.279c0.266,0,0.497-0.093,0.681-0.279c0.185-0.186,0.278-0.408,0.278-0.666
			c0-0.265-0.094-0.495-0.279-0.682C107.31,43.203,106.705,43.188,106.325,43.566z"/>
		<rect x="106.134" y="46.585" fill="#EE5B99" width="1.718" height="8.271"/>
		<path fill="#EE5B99" d="M113.853,53.455c-0.146,0.029-0.29,0.054-0.427,0.073c-0.857,0.122-1.532-0.017-1.945-0.356
			c-0.31-0.259-0.46-0.615-0.46-1.092v-1.217c0-0.257-0.003-0.57-0.008-0.946c-0.005-0.374-0.007-0.815-0.007-1.322v-2.012h-1.719
			v5.512c0,0.483,0.085,0.913,0.253,1.274c0.168,0.362,0.409,0.672,0.717,0.916c0.302,0.239,0.663,0.418,1.071,0.532
			c0.398,0.111,0.843,0.166,1.326,0.166c0.413,0,0.859-0.042,1.324-0.125c0.457-0.082,0.938-0.209,1.432-0.375l0.163-0.055v-7.844
			h-1.719v6.87H113.853z"/>
		<path fill="#EE5B99" d="M121.499,46.644c-0.576-0.139-1.115-0.21-1.632-0.21h-0.002c-0.593,0.005-1.106,0.119-1.526,0.335
			c-0.432,0.225-0.767,0.56-0.994,0.995c-0.226,0.426-0.338,0.954-0.338,1.567v2.131c0,0.479,0.029,0.931,0.088,1.345
			c0.063,0.436,0.201,0.819,0.412,1.142c0.218,0.332,0.539,0.594,0.959,0.779c0.415,0.185,0.947,0.272,1.632,0.272
			c0.683,0,1.219-0.088,1.638-0.271c0.425-0.187,0.75-0.45,0.97-0.788c0.209-0.327,0.347-0.713,0.41-1.147
			c0.059-0.412,0.087-0.869,0.087-1.359v-7.888h-1.704L121.499,46.644L121.499,46.644z M120.214,47.61l0.04,0.238
			c0.346,0.004,0.764,0.086,1.245,0.242v3.487c0,0.291-0.01,0.565-0.027,0.823c-0.018,0.231-0.069,0.434-0.155,0.602
			c-0.077,0.152-0.202,0.271-0.38,0.363c-0.185,0.097-0.467,0.146-0.839,0.146c-0.362,0-0.638-0.051-0.821-0.151
			c-0.178-0.097-0.301-0.222-0.381-0.385c-0.087-0.176-0.141-0.394-0.156-0.645c-0.019-0.277-0.028-0.576-0.028-0.898v-2.101
			c0-0.311,0.056-0.586,0.165-0.821c0.103-0.221,0.258-0.382,0.474-0.493c0.22-0.112,0.512-0.168,0.864-0.168V47.61L120.214,47.61z"
			/>
		<path fill="#EE5B99" d="M130.486,47.381c-0.241-0.283-0.583-0.513-1.016-0.686c-0.426-0.17-0.987-0.255-1.666-0.255
			c-0.533,0-1,0.069-1.391,0.208c-0.396,0.14-0.725,0.331-0.977,0.569c-0.258,0.239-0.448,0.521-0.572,0.836
			c-0.12,0.312-0.182,0.643-0.182,0.989v0.239h1.675v-0.239c0-0.506,0.154-1.086,1.345-1.086c0.424,0,0.753,0.052,0.979,0.158
			c0.218,0.099,0.38,0.226,0.479,0.371c0.103,0.151,0.168,0.315,0.19,0.488c0.028,0.196,0.043,0.379,0.043,0.543v0.649
			c-0.212-0.068-0.429-0.12-0.646-0.152c-0.69-0.104-1.437-0.103-2.127,0.03c-0.371,0.072-0.708,0.195-0.996,0.366
			c-0.302,0.178-0.547,0.418-0.731,0.713c-0.187,0.304-0.28,0.678-0.28,1.113c0,0.488,0.091,0.915,0.27,1.269
			c0.182,0.356,0.439,0.65,0.771,0.875c0.321,0.219,0.699,0.377,1.124,0.475c0.413,0.094,0.874,0.143,1.372,0.143
			c0.878,0,1.813-0.164,2.785-0.487l0.163-0.055V49.4c0-0.352-0.04-0.703-0.122-1.046C130.89,47.991,130.725,47.664,130.486,47.381z
			 M127.732,51.458c0.432,0,0.817,0.052,1.146,0.153c0.298,0.094,0.444,0.182,0.516,0.237v1.627
			c-1.087,0.236-2.006,0.126-2.557-0.224c-0.331-0.209-0.491-0.531-0.491-0.983c0-0.146,0.03-0.261,0.095-0.356
			c0.071-0.104,0.16-0.184,0.277-0.248c0.125-0.068,0.277-0.121,0.447-0.155C127.346,51.476,127.535,51.458,127.732,51.458z"/>
		<path fill="#EE5B99" d="M136.924,46.644c-0.577-0.139-1.116-0.21-1.633-0.21c0,0,0,0-0.001,0
			c-0.592,0.005-1.105,0.119-1.527,0.335c-0.432,0.225-0.766,0.56-0.994,0.995c-0.226,0.426-0.338,0.954-0.338,1.567v2.131
			c0,0.479,0.029,0.931,0.089,1.345c0.063,0.436,0.2,0.819,0.412,1.142c0.217,0.332,0.54,0.594,0.959,0.779
			c0.413,0.185,0.949,0.272,1.632,0.272c0.684,0,1.219-0.088,1.637-0.271c0.426-0.187,0.752-0.45,0.97-0.788
			c0.21-0.327,0.349-0.713,0.41-1.147c0.059-0.412,0.09-0.869,0.09-1.359v-7.888h-1.706L136.924,46.644L136.924,46.644z
			 M135.641,47.61l0.038,0.238c0.346,0.004,0.765,0.086,1.245,0.242v3.487c0,0.291-0.009,0.565-0.028,0.823
			c-0.017,0.231-0.067,0.434-0.154,0.602c-0.078,0.152-0.202,0.271-0.38,0.363c-0.184,0.097-0.467,0.146-0.839,0.146
			c-0.361,0-0.638-0.051-0.821-0.151c-0.179-0.097-0.302-0.222-0.383-0.385c-0.086-0.176-0.137-0.394-0.156-0.645
			c-0.017-0.277-0.028-0.576-0.028-0.898v-2.101c0-0.311,0.055-0.586,0.166-0.821c0.102-0.221,0.258-0.382,0.474-0.493
			c0.221-0.112,0.511-0.168,0.866-0.168L135.641,47.61L135.641,47.61z"/>
		<path fill="#EE5B99" d="M147.336,46.644c-0.576-0.139-1.117-0.21-1.632-0.21h-0.003c-0.592,0.005-1.105,0.119-1.527,0.335
			c-0.43,0.225-0.765,0.56-0.994,0.995c-0.225,0.426-0.337,0.954-0.337,1.567v2.131c0,0.479,0.03,0.931,0.09,1.345
			c0.061,0.436,0.198,0.819,0.409,1.142c0.219,0.332,0.541,0.594,0.961,0.779c0.413,0.185,0.947,0.272,1.631,0.272
			c0.685,0,1.221-0.088,1.637-0.271c0.427-0.187,0.753-0.45,0.971-0.788c0.21-0.327,0.349-0.713,0.41-1.147
			c0.059-0.412,0.089-0.869,0.089-1.359v-7.888h-1.705L147.336,46.644L147.336,46.644z M146.051,47.61l0.039,0.238
			c0.347,0.004,0.767,0.086,1.246,0.242v3.487c0,0.291-0.009,0.565-0.027,0.823c-0.018,0.231-0.068,0.434-0.154,0.602
			c-0.079,0.152-0.202,0.271-0.38,0.363c-0.186,0.097-0.468,0.146-0.841,0.146c-0.36,0-0.636-0.051-0.82-0.151
			c-0.178-0.097-0.303-0.222-0.382-0.385c-0.087-0.176-0.139-0.394-0.155-0.645c-0.02-0.277-0.029-0.576-0.029-0.898v-2.101
			c0-0.311,0.055-0.586,0.165-0.821c0.103-0.221,0.258-0.382,0.473-0.493c0.222-0.112,0.512-0.168,0.866-0.168V47.61L146.051,47.61z
			"/>
		<path fill="#EE5B99" d="M155.989,47.472c-0.231-0.328-0.559-0.586-0.971-0.767c-0.406-0.176-0.932-0.265-1.565-0.265
			c-0.684,0-1.237,0.092-1.646,0.273c-0.421,0.186-0.746,0.449-0.968,0.785c-0.218,0.328-0.355,0.719-0.413,1.159
			c-0.052,0.415-0.081,0.874-0.081,1.364v1.411c0,0.488,0.031,0.945,0.091,1.359c0.06,0.436,0.198,0.821,0.409,1.143
			c0.219,0.329,0.54,0.592,0.961,0.777c0.407,0.183,0.962,0.272,1.646,0.272c0.578,0,1.069-0.063,1.464-0.191
			c0.404-0.131,0.733-0.32,0.974-0.563c0.244-0.242,0.418-0.539,0.514-0.882c0.093-0.322,0.14-0.688,0.14-1.081v-0.239H156
			c-0.118,0-0.237,0.003-0.354,0.007c-0.113,0.006-0.221,0.007-0.322,0.007h-0.484v0.241c0,0.397-0.094,0.704-0.283,0.911
			c-0.181,0.198-0.563,0.302-1.104,0.302c-0.372,0-0.654-0.049-0.841-0.146c-0.176-0.089-0.298-0.213-0.376-0.379
			c-0.087-0.183-0.141-0.4-0.157-0.646c-0.02-0.273-0.028-0.576-0.028-0.905v-0.149h4.508v-1.204c0-0.521-0.038-1.002-0.112-1.433
			C156.369,48.185,156.216,47.793,155.989,47.472z M152.617,48.081c0.184-0.102,0.465-0.153,0.835-0.153
			c0.338,0,0.604,0.042,0.788,0.123c0.169,0.076,0.292,0.188,0.377,0.338c0.095,0.167,0.158,0.387,0.188,0.652
			c0.025,0.226,0.042,0.488,0.047,0.782h-2.801c0.002-0.265,0.012-0.516,0.028-0.751c0.017-0.236,0.068-0.443,0.157-0.615
			C152.313,48.302,152.437,48.177,152.617,48.081z"/>
		<path fill="#EE5B99" d="M163.825,48.102l0.759-1.517h-2.193v-3.154h-1.704v8.018c0,0.42,0.018,0.837,0.058,1.238
			c0.042,0.434,0.164,0.823,0.364,1.159c0.205,0.345,0.518,0.628,0.933,0.84c0.41,0.212,0.961,0.314,1.679,0.314
			c0.243,0,0.424-0.021,0.558-0.071l0.158-0.058v-1.358h-0.643c-0.319,0-0.576-0.031-0.767-0.095
			c-0.166-0.056-0.289-0.146-0.373-0.273c-0.095-0.142-0.161-0.346-0.199-0.606c-0.041-0.286-0.063-0.652-0.063-1.09v-3.347H163.825
			z"/>
		<path fill="#EE5B99" d="M171.198,48.248c-0.095-0.368-0.26-0.693-0.49-0.962c-0.232-0.269-0.554-0.482-0.956-0.631
			c-0.391-0.144-0.893-0.215-1.494-0.215c-0.601,0-1.104,0.071-1.501,0.215c-0.405,0.148-0.731,0.361-0.969,0.63
			c-0.236,0.269-0.402,0.595-0.493,0.967c-0.086,0.353-0.128,0.74-0.128,1.148v2.033c0,0.49,0.027,0.945,0.081,1.355
			c0.057,0.438,0.196,0.825,0.412,1.152c0.222,0.337,0.544,0.601,0.958,0.786c0.409,0.185,0.946,0.272,1.64,0.272
			s1.232-0.088,1.646-0.272c0.419-0.186,0.746-0.449,0.968-0.786c0.216-0.327,0.354-0.717,0.413-1.159
			c0.054-0.418,0.081-0.878,0.081-1.363l-0.001-2.029C171.342,48.98,171.288,48.597,171.198,48.248z M169.093,53.36
			c-0.184,0.102-0.465,0.151-0.836,0.151c-0.372,0-0.654-0.05-0.838-0.146c-0.179-0.091-0.303-0.211-0.38-0.364
			c-0.087-0.166-0.139-0.368-0.155-0.601c-0.019-0.259-0.029-0.533-0.029-0.823v-2.017c0-0.248,0.016-0.483,0.043-0.705
			c0.022-0.19,0.082-0.355,0.175-0.491c0.091-0.132,0.222-0.233,0.397-0.313c0.185-0.081,0.449-0.123,0.787-0.123
			c0.371,0,0.652,0.052,0.836,0.153c0.179,0.096,0.303,0.221,0.383,0.382c0.087,0.178,0.138,0.397,0.156,0.653
			c0.019,0.283,0.027,0.584,0.027,0.904v1.398c0,0.33-0.009,0.635-0.027,0.912c-0.019,0.252-0.069,0.47-0.156,0.646
			C169.396,53.14,169.272,53.264,169.093,53.36z"/>
		<path fill="#EE5B99" d="M177.033,46.644c-0.578-0.139-1.117-0.21-1.634-0.21h-0.001c-0.592,0.005-1.105,0.119-1.528,0.335
			c-0.431,0.225-0.765,0.56-0.994,0.995c-0.224,0.426-0.337,0.954-0.337,1.567v2.131c0,0.479,0.03,0.931,0.089,1.345
			c0.062,0.436,0.2,0.819,0.412,1.142c0.216,0.332,0.539,0.594,0.959,0.779c0.413,0.185,0.949,0.272,1.631,0.272
			c0.685,0,1.22-0.088,1.637-0.271c0.427-0.187,0.753-0.45,0.97-0.788c0.211-0.327,0.35-0.713,0.41-1.147
			c0.06-0.412,0.091-0.869,0.091-1.359v-7.888h-1.705L177.033,46.644L177.033,46.644z M175.749,47.61l0.037,0.238
			c0.347,0.004,0.766,0.086,1.247,0.242v3.487c0,0.291-0.01,0.565-0.028,0.823c-0.019,0.231-0.068,0.434-0.155,0.602
			c-0.079,0.152-0.201,0.271-0.379,0.363c-0.187,0.097-0.468,0.146-0.841,0.146c-0.36,0-0.637-0.051-0.82-0.151
			c-0.178-0.097-0.303-0.222-0.382-0.385c-0.086-0.176-0.138-0.394-0.157-0.645c-0.018-0.277-0.028-0.576-0.028-0.898v-2.101
			c0-0.311,0.056-0.586,0.166-0.821c0.102-0.221,0.259-0.382,0.474-0.493c0.22-0.112,0.51-0.168,0.865-0.168L175.749,47.61
			L175.749,47.61z"/>
		<path fill="#EE5B99" d="M185.989,48.248c-0.094-0.368-0.261-0.693-0.49-0.962c-0.233-0.269-0.555-0.482-0.956-0.631
			c-0.391-0.144-0.893-0.215-1.494-0.215s-1.105,0.071-1.501,0.215c-0.406,0.148-0.73,0.361-0.97,0.63
			c-0.235,0.269-0.402,0.595-0.491,0.967c-0.088,0.353-0.13,0.74-0.13,1.148v2.033c0,0.49,0.028,0.945,0.081,1.355
			c0.057,0.438,0.196,0.825,0.412,1.152c0.223,0.337,0.545,0.601,0.96,0.786c0.409,0.185,0.945,0.272,1.639,0.272
			s1.232-0.088,1.646-0.272c0.419-0.186,0.744-0.449,0.966-0.786c0.216-0.327,0.354-0.717,0.412-1.159
			c0.055-0.418,0.082-0.878,0.082-1.363l-0.001-2.029C186.134,48.98,186.078,48.597,185.989,48.248z M183.884,53.36
			c-0.185,0.102-0.465,0.151-0.836,0.151c-0.373,0-0.654-0.05-0.839-0.146c-0.177-0.091-0.302-0.211-0.38-0.364
			c-0.087-0.166-0.137-0.368-0.156-0.601c-0.018-0.259-0.027-0.533-0.027-0.823v-2.017c0-0.248,0.016-0.483,0.041-0.705
			c0.024-0.19,0.084-0.355,0.176-0.491c0.091-0.132,0.222-0.233,0.397-0.313c0.186-0.081,0.449-0.123,0.788-0.123
			c0.371,0,0.651,0.052,0.836,0.153c0.178,0.096,0.303,0.221,0.382,0.382c0.087,0.178,0.139,0.397,0.156,0.653
			c0.019,0.283,0.028,0.584,0.028,0.904v1.398c0,0.33-0.01,0.635-0.028,0.912c-0.018,0.252-0.069,0.47-0.156,0.646
			C184.187,53.14,184.062,53.264,183.884,53.36z"/>
		<path fill="#EE5B99" d="M192.907,49.023v-0.241c0-0.795-0.261-1.396-0.779-1.784c-0.497-0.369-1.163-0.558-1.98-0.558
			c-0.824,0-1.489,0.177-1.976,0.528c-0.512,0.366-0.771,0.939-0.771,1.698c0,0.433,0.11,0.811,0.324,1.123
			c0.201,0.294,0.461,0.56,0.77,0.786c0.298,0.219,0.619,0.42,0.948,0.6c0.322,0.177,0.626,0.352,0.911,0.525
			c0.27,0.167,0.492,0.345,0.663,0.53c0.146,0.156,0.218,0.333,0.218,0.541c0,0.471-0.188,0.587-0.247,0.624
			c-0.199,0.124-0.482,0.188-0.839,0.188c-0.353,0-0.628-0.068-0.82-0.201c-0.166-0.116-0.249-0.36-0.249-0.727v-0.239h-1.678v0.239
			c0,0.796,0.258,1.396,0.765,1.782c0.486,0.371,1.154,0.561,1.982,0.561c0.815,0,1.479-0.18,1.976-0.534
			c0.52-0.373,0.783-0.942,0.783-1.692c0-0.448-0.107-0.84-0.32-1.164c-0.202-0.305-0.461-0.578-0.768-0.807
			c-0.294-0.221-0.614-0.421-0.957-0.598c-0.316-0.163-0.621-0.332-0.909-0.503c-0.268-0.161-0.491-0.333-0.663-0.512
			c-0.144-0.145-0.212-0.317-0.212-0.522c0-0.147,0.023-0.268,0.074-0.354c0.053-0.09,0.12-0.158,0.204-0.21
			c0.094-0.056,0.205-0.093,0.331-0.113c0.305-0.046,0.659-0.043,0.959,0.008c0.135,0.021,0.253,0.066,0.349,0.128
			c0.09,0.059,0.159,0.139,0.213,0.24c0.055,0.106,0.082,0.246,0.082,0.416v0.241H192.907z"/>
	</g>
</g>
</svg>
